<?xml version="1.0" encoding="UTF-8"?>
<svg id="Layer_1" xmlns="http://www.w3.org/2000/svg" version="1.1" viewBox="0 0 622.11 600">
  <!-- Generator: Adobe Illustrator 29.6.1, SVG Export Plug-In . SVG Version: 2.1.1 Build 9)  -->
  <defs>
    <style>
      .st0 {
        fill: #9c9c9c;
      }
    </style>
  </defs>
  <path class="st0" d="M315.95,63.27l1.02,76.48c3.42,35.8,4.61,77.21,24.76,108.24,32.22,49.61,112.61,46.8,164.68,51.32l100.55,1.46-100.55,1.46c-50.33,4.54-127.66,1.78-161.29,46.71-25.22,33.7-27.89,94.75-29.21,135.79-.15,4.58,1.28,54.54-1.46,54.55l-1.51-77.5c-3.36-34.24-4.36-72.62-21.82-103.18-31.4-54.97-111.64-51.32-166.63-56.37l-109.55-1.46,110.55-1.46c54.64-5.05,134.48-1.53,165.63-56.37,21.19-37.31,19.38-86.62,22.87-128.13,1.38-15.68-1.99-34.82-.04-50.06.19-1.46.76-3.1,2-1.48Z"/>
</svg>